<svg width="344" height="372" viewBox="0 0 344 372" fill="none" xmlns="http://www.w3.org/2000/svg">
<path d="M184.762 275.06C184.762 275.06 173.563 334.372 164.35 347.919C155.138 361.466 141.229 362.381 141.5 365.127C142.041 371.9 146.557 374.921 167.782 367.873C182.233 365.585 185.123 363.205 186.478 360.367C187.833 357.53 183.859 353.502 182.956 344.898C182.053 336.295 211.045 289.797 212.129 276.25C213.213 262.704 184.762 275.06 184.762 275.06Z" fill="#FFDAA1"/>
<path d="M190.994 112.959C190.994 112.959 183.949 121.014 174.376 120.007C164.802 119 116.933 96.941 104.108 76.1634C91.2825 55.3859 78.9992 45.0429 73.3994 44.0361C67.7997 43.0292 83.6054 63.4406 83.6054 63.4406C83.6054 63.4406 72.3156 60.054 72.135 61.0608C72.0446 62.0677 74.3026 64.4475 92.818 76.8042C108.985 95.8426 128.765 132.363 163.808 138.313C164.983 138.496 166.066 138.679 167.15 138.862C177.627 155.978 177.447 143.164 177.627 140.418C200.387 143.439 205.626 141.7 218 147.649C232.541 154.606 271.83 185.726 271.83 185.726L281.765 187.374C281.765 187.374 256.385 147.924 205.897 123.485C190.994 112.959 190.994 112.959 190.994 112.959Z" fill="#FFDAA1"/>
<path d="M250.334 263.07C250.334 263.07 271.378 287.325 317.079 293.55C332.253 294.099 332.885 316.066 339.84 314.693C346.794 313.229 342.188 299.682 340.381 292.451C338.575 285.22 340.201 272.864 332.795 275.152C329.905 275.701 325.569 276.433 321.144 276.799C305.157 278.264 275.623 258.31 271.017 248.882C266.41 239.546 250.334 263.07 250.334 263.07Z" fill="#FFDAA1"/>
<path d="M167.06 273.413C167.06 273.413 201.381 291.811 234.076 275.06C266.772 258.31 271.378 265.999 294.138 243.94C316.898 221.881 315.905 179.41 315.905 179.41C315.905 179.41 239.225 201.286 201.833 120.739C185.575 124.217 179.976 119.458 179.976 119.458L174.286 119.824C174.286 119.824 179.343 138.221 176.814 144.903C174.286 151.585 167.06 138.771 167.06 138.771L160.015 137.398C160.015 137.398 159.744 172.637 171.757 210.623C175.911 228.38 167.06 273.413 167.06 273.413Z" fill="url(#paint0_linear)"/>
<path d="M160.828 57.0335C186.117 29.5742 203.368 67.3765 211.316 62.0677C219.264 56.7589 221.522 46.9651 221.522 46.9651C221.522 46.9651 243.199 83.1198 214.929 106.552C171.847 142.34 135.539 82.113 160.828 57.0335Z" fill="url(#paint1_linear)"/>
<path d="M158.028 355.058C149.899 362.015 141.409 363.022 141.59 365.127C142.132 371.9 146.648 374.921 167.873 367.873C182.324 365.585 185.214 363.205 186.569 360.367C187.653 357.987 185.124 354.784 183.678 348.651C183.408 347.553 167.511 357.804 158.028 355.058Z" fill="url(#paint2_linear)"/>
<path d="M329.904 302.062C333.878 308.286 335.775 315.517 339.839 314.693C346.794 313.229 342.188 299.682 340.381 292.451C338.575 285.22 340.201 272.864 332.794 275.152C330.627 275.61 327.646 276.067 324.485 276.433C323.401 276.616 329.814 290.804 329.904 302.062Z" fill="url(#paint3_linear)"/>
<path d="M47.3985 29.7632L52.6835 18.1387L0.752502 0.600098L47.3985 29.7632Z" fill="#B5BECE"/>
<path d="M44.641 22.6253L0.752502 0.600098L31.3136 28.1316L44.641 22.6253Z" fill="#DEE4EE"/>
<path d="M64.6321 13.4481L0.752502 0.600098L52.6834 18.1387L64.6321 13.4481Z" fill="#DEE4EE"/>
<path d="M44.6412 22.6253L47.3986 29.7632L39.3561 24.8686L44.6412 22.6253Z" fill="#CAD4E5"/>
<defs>
<linearGradient id="paint0_linear" x1="160.018" y1="200.836" x2="315.931" y2="200.836" gradientUnits="userSpaceOnUse">
<stop offset="0.00628811" stop-color="#07AB9E"/>
<stop offset="1" stop-color="#079F9E"/>
</linearGradient>
<linearGradient id="paint1_linear" x1="152.475" y1="82.3066" x2="229.475" y2="82.3066" gradientUnits="userSpaceOnUse">
<stop stop-color="#E9CE31"/>
<stop offset="1" stop-color="#EFB52E"/>
</linearGradient>
<linearGradient id="paint2_linear" x1="141.501" y1="360.287" x2="186.825" y2="360.287" gradientUnits="userSpaceOnUse">
<stop offset="0.00628811" stop-color="#07AB9E"/>
<stop offset="1" stop-color="#079F9E"/>
</linearGradient>
<linearGradient id="paint3_linear" x1="324.378" y1="294.787" x2="343.526" y2="294.787" gradientUnits="userSpaceOnUse">
<stop offset="0.00628811" stop-color="#07AB9E"/>
<stop offset="1" stop-color="#079F9E"/>
</linearGradient>
</defs>
</svg>
